inDegrees=no
num_controls=7
num_derivatives=13
num_iterations=111
num_multipliers=7
num_parameters=0
num_slacks=7
num_states=26
objective=6.113359
objective_accelerations=0.632183
objective_balance=0.064073
objective_effort=0.529693
objective_height=4.817376
objective_ligament=0.070034
solver_duration=1163.025690
status=Solve_Succeeded
success=true
DataType=double
version=3
OpenSimVersion=4.4-2022-07-23-0e9fedc
endheader
time	/jointset/ground_pelvis/pelvis_tilt/value	/jointset/ground_pelvis/pelvis_tx/value	/jointset/ground_pelvis/pelvis_ty/value	/jointset/hip_l/hip_flexion_l/value	/jointset/hip_l/hip_adduction_l/value	/jointset/hip_l/hip_rotation_l/value	/jointset/back/lumbar_extension/value	/jointset/patellofemoral_l/patellar_flexion_l/value	/jointset/knee_l/knee_flexion_l/value	/jointset/knee_l/knee_adduction_l/value	/jointset/knee_l/knee_rotation_l/value	/jointset/ankle_l/ankle_angle_l/value	/jointset/subtalar_l/subtalar_angle_l/value	/jointset/ground_pelvis/pelvis_tilt/speed	/jointset/ground_pelvis/pelvis_tx/speed	/jointset/ground_pelvis/pelvis_ty/speed	/jointset/hip_l/hip_flexion_l/speed	/jointset/hip_l/hip_adduction_l/speed	/jointset/hip_l/hip_rotation_l/speed	/jointset/back/lumbar_extension/speed	/jointset/patellofemoral_l/patellar_flexion_l/speed	/jointset/knee_l/knee_flexion_l/speed	/jointset/knee_l/knee_adduction_l/speed	/jointset/knee_l/knee_rotation_l/speed	/jointset/ankle_l/ankle_angle_l/speed	/jointset/subtalar_l/subtalar_angle_l/speed	/forceset/tau_hip_flexion_l	/forceset/tau_hip_adduction_l	/forceset/tau_hip_rotation_l	/forceset/tau_knee_flexion_l	/forceset/tau_ankle_angle_l	/forceset/tau_subtalar_angle_l	/forceset/tau_lumbar_extension	lambda_cid13_p0	lambda_cid13_p1	lambda_cid13_p2	lambda_cid13_p3	lambda_cid13_p4	lambda_cid13_p5	lambda_cid14_p0	/jointset/ground_pelvis/pelvis_tilt/accel	/jointset/ground_pelvis/pelvis_tx/accel	/jointset/ground_pelvis/pelvis_ty/accel	/jointset/hip_l/hip_flexion_l/accel	/jointset/hip_l/hip_adduction_l/accel	/jointset/hip_l/hip_rotation_l/accel	/jointset/back/lumbar_extension/accel	/jointset/patellofemoral_l/patellar_flexion_l/accel	/jointset/knee_l/knee_flexion_l/accel	/jointset/knee_l/knee_adduction_l/accel	/jointset/knee_l/knee_rotation_l/accel	/jointset/ankle_l/ankle_angle_l/accel	/jointset/subtalar_l/subtalar_angle_l/accel	gamma_cid13_p0	gamma_cid13_p1	gamma_cid13_p2	gamma_cid13_p3	gamma_cid13_p4	gamma_cid13_p5	gamma_cid14_p0
0.5	-0.119231050324979	-0.04142999137596377	0.7952892669330556	0.9879050636459801	-0.3272911497916163	-0.07195955249184494	-0.7958969094405088	0.9641454505236337	0.9641454505236453	-0.08934583467418367	-0.1745289183652103	0.1637954841841891	0.02148130306787004	-0.188532719461002	-0.1512560872153061	-0.4618417669888839	1.752431245293847	-0.02095673547021675	0.5660118107815429	-0.8382581027435327	1.895866066999665	1.895866066999665	0.1919732690955495	3.465680250265136e-05	0.4623738803880468	0.139866430929465	-0.2908460364354525	0.03495143620192692	-0.006278899755155239	-0.2388487222929487	0.06959051501840886	0.03860018052468495	0.3387276385535566	-21.64189258846133	-14.1474228177398	3.140687646788471	-8.736038021967174	-700.2420622214254	-64.21561510665151	-7.975953179665479	0.3667663895839938	0.7123418670396967	-0.2279043718066728	-1.606130009032626	0.3262780512693269	-0.5851191165205556	1.996335409785363	-1.500043285772687	-1.500043285772663	-0.1896818047936926	0.006431723868302985	-0.3433066649051582	0.334069809661577	-3.480672552452372e-07	-3.303404690420104e-07	2.060749643298155e-06	1.874672118921076e-07	-3.931528821524699e-07	-8.563216093194172e-08	-3.007972565210239e-07
0.51	-0.1210976584307827	-0.04290690256113606	0.7906605224230502	1.005346215228839	-0.3274855889230923	-0.0663275171207202	-0.8041788465096916	0.9830260908032894	0.983026090803283	-0.08743901335892819	-0.1745284954230449	0.1684008805658831	0.02289488976638644	-0.184758204697652	-0.1441246875983369	-0.4638000193029074	1.735552706925221	-0.01794511002163251	0.5603370197751897	-0.818035581040554	1.879993441016703	1.879993441016698	0.1893745115250529	4.554011509367043e-05	0.4586335485345592	0.1428144878777103	-0.2979015815557029	0.03532395144168302	-0.006402116921819705	-0.2424704392271288	0.06811242501704941	0.03851760542110941	0.3456038234426005	-22.41608567018873	-13.88435160541491	2.994055927068614	-8.495523179506732	-705.4073282661202	-63.89857319187244	-7.209683095561592	0.3873681152404774	0.7137944992622953	-0.1637960715776809	-1.765711426400484	0.2862394284018846	-0.5676862967748634	2.049270058134585	-1.671093670740389	-1.671093670741076	-0.2974811000571565	-0.001838127924540651	-0.4001801504620653	0.2695297813686617	-3.375324307800581e-07	-3.217598894606847e-07	2.024435488684565e-06	1.82961302541167e-07	-3.764724704744461e-07	-4.100041020927952e-08	-2.969136686531513e-07
0.52	-0.1229256065698377	-0.04431244865209073	0.7860153933078294	1.022611182292899	-0.3276503848727305	-0.06075403510046986	-0.8122557464603269	1.001739960539882	1.001739960539848	-0.0855586812927701	-0.1745280146003386	0.1729667168880649	0.02433682826317801	-0.1808007261131438	-0.1369830683717835	-0.4651186880320263	1.717194341531683	-0.0150280991030982	0.5543011406055547	-0.7972506790343858	1.862511958386445	1.862511958386435	0.1866754192793812	4.62329125224404e-05	0.4544618684854149	0.1455367905844651	-0.3049571266759272	0.03569646668146324	-0.006525334088622269	-0.2460921561613009	0.06663433501569514	0.03843503031756596	0.352480008331662	-23.18982713932103	-13.62525672834496	2.852511597719075	-8.317581784500911	-710.5956317778536	-63.64849687073151	-6.482600971857065	0.4033591538153762	0.7143857889566864	-0.0999876548257142	-1.902095414014757	0.307355145259289	-0.6573367491769173	2.108811470423064	-1.821814615231719	-1.821814615231743	-0.2097487398287385	0.004393620835816594	-0.4295763040362652	0.2889189613635169	-3.175341523267287e-07	-2.315329803564254e-07	1.991711538550394e-06	1.873621072477323e-07	-3.514965450928154e-07	2.723928093708052e-08	-2.828878317206469e-07
0.53	-0.124713120911493	-0.04564660745816983	0.7813602793448348	1.039685403904545	-0.3277864034117219	-0.05524254109397447	-0.8201221270558843	1.020271192827162	1.020271192827159	-0.08370575093522606	-0.1745274553300628	0.1774887827612618	0.02580496392647913	-0.1766730443528499	-0.1298545767769916	-0.4657957313836653	1.697414550247744	-0.0121933182398974	0.547939881885915	-0.7759498171997606	1.843479852648467	1.843479852648471	0.1838947550805887	5.712794220014033e-05	0.4498844548087731	0.1480497797509077	-0.3117782861413039	0.03592953718715006	-0.00659004768056108	-0.2497678552209264	0.06500067696859178	0.03823066853013021	0.3590830859289137	-24.01794030104339	-13.29931287937092	2.695239845680341	-7.977506115762806	-715.6856417394778	-63.32519547907913	-5.795944068660587	0.4218098397796846	0.7112361899705274	-0.03537437334407893	-2.051272907783666	0.2686127861684423	-0.63444692381914	2.15206697130563	-1.982050412208747	-1.982050412206741	-0.3146273594328681	-0.001443019770911095	-0.4818495937991757	0.2262021455688578	-2.954693483799959e-07	-1.364731951952373e-07	1.949962801691629e-06	1.916425054521706e-07	-3.258870680285603e-07	9.506148239685664e-08	-2.668714275777453e-07
0.54	-0.1264584910050089	-0.04690965027925451	0.7767016326087218	1.056554757218924	-0.327894659496216	-0.04979644497273803	-0.8277732303468293	1.03860447568524	1.038604475685258	-0.0818811076396094	-0.1745269632022541	0.1819630693588311	0.02729697213170183	-0.1723718764868698	-0.1227598713729003	-0.4658252426557454	1.676220682075794	-0.009475608204004022	0.5412215635478208	-0.7541952181122267	1.822922072545373	1.82292207254539	0.1810180069006764	3.280441969149878e-05	0.4449060133592928	0.1503112989687253	-0.3185994456066305	0.036162607692925	-0.006654761272910518	-0.2534435542805356	0.06336701892151253	0.03802630674281474	0.3656861635261916	-24.84667120554468	-12.97687944416957	2.542662853209557	-7.695566060513705	-720.8103279868393	-63.06527079078124	-5.150502289530329	0.438056374952386	0.7076285508167216	0.02951876108608744	-2.184910791617009	0.2839409797977109	-0.7287486728679062	2.199558921004683	-2.126949488254828	-2.126949488254877	-0.2289655360527447	-0.002650089601504653	-0.5097818586037783	0.2386249716385359	-2.711181758022637e-07	-3.606639822638318e-08	1.898229194414164e-06	1.957896879521281e-07	-2.99576640166508e-07	1.624217803736037e-07	-2.486526937552556e-07
0.55	-0.1281601142158809	-0.04810200216954214	0.7720459365946198	1.073205364656211	-0.3279761512964696	-0.04441918293778963	-0.835204718585268	1.056724650184107	1.05672465018418	-0.08008549652663742	-0.1745266386739681	0.1863856161473688	0.02881053205180728	-0.1679332420499169	-0.1157244318473211	-0.465203867811288	1.653679159019542	-0.006838723704097721	0.5341704071065568	-0.7320505908969904	1.800860075972746	1.800860075972754	0.1780952992812228	2.773547883647075e-05	0.4395354692391073	0.1523600912180762	-0.3249604666579033	0.03623841267642627	-0.006657240568535533	-0.2573713750371892	0.06184205896875768	0.03766936492746645	0.3718274390290003	-25.64369971860618	-12.5857394866851	2.370001733305833	-7.288228888753031	-725.7785112368317	-62.74081985023507	-4.546757450202214	0.4496719269054883	0.6994524897750043	0.09490365410192393	-2.322052602909338	0.2508935007087575	-0.7025853909846475	2.22969042329915	-2.283689687152537	-2.283689687153756	-0.3252559663833497	0.0002857997918736566	-0.560860184098846	0.1816943925292763	-2.466376492595683e-07	4.474233672031906e-08	1.830829039071701e-06	1.949428654379853e-07	-2.718303801055869e-07	2.196638015643224e-07	-2.310253961830388e-07
0.5600000000000001	-0.1298167700926079	-0.04922440949730428	0.767399745690558	1.089623900954894	-0.3280318079885989	-0.03911428971945247	-0.8424132053912496	1.074616631728177	1.074616631728291	-0.07831937900821002	-0.1745264206158621	0.1907524235956342	0.0303433175025958	-0.1633784096594648	-0.1087709588678056	-0.4639242206477702	1.629806454352079	-0.00430858657936314	0.5267478002161524	-0.7095949316211374	1.777283481584684	1.777283481584684	0.1751192880021243	1.151038275588247e-05	0.4337581453040092	0.1541564051052714	-0.3313214877091135	0.03631421766005503	-0.006659719864907878	-0.261299195793824	0.06031709901603882	0.03731242311229695	0.3779687145318408	-26.44250637799826	-12.19733604160276	2.201260019562107	-6.933864274875832	-730.7938701001472	-62.47426109949546	-3.985068849261061	0.4612959656519806	0.6912352416041243	0.1611732248981757	-2.451147113859315	0.2625915047632474	-0.8030387626960307	2.261765333127887	-2.429869051341959	-2.429869051341907	-0.2396262679817567	-0.004881320646660645	-0.591137821586089	0.1881292992074556	-2.220018979589173e-07	1.020333972404397e-07	1.744629026051242e-06	1.881032369069224e-07	-2.423611214060231e-07	2.647638906118072e-07	-2.141078221111494e-07
0.5700000000000001	-0.1314273041247329	-0.05027771731151814	0.7627696073878153	1.105797274436676	-0.3280625900330991	-0.03388543541130149	-0.8493956178854638	1.09226565683301	1.092265656833019	-0.07658302758020513	-0.1745263386418207	0.1950596720972403	0.03189299925160328	-0.1587047278435715	-0.1019065798778409	-0.4619957157969744	1.60465506441761	-0.001866984970218759	0.5189675092261571	-0.6868452541176476	1.752298181147168	1.752298181147184	0.1721437697408696	-1.097937357873388e-06	0.427642383972462	0.155740842943611	-0.33746125133065	0.03627935088736408	-0.006596347923352631	-0.2651650021204875	0.05870495561381842	0.03686375780793704	0.3838594398352122	-27.26134834674927	-11.76242599789577	2.021489253077381	-6.517261616192435	-735.5806673969599	-62.14496734357736	-3.464510005099467	0.4739348133201718	0.6816796894770488	0.2248025924734852	-2.579139012931481	0.2318131596175116	-0.7740411832424333	2.287915924308707	-2.566323367526161	-2.566323367523834	-0.3275842149943824	-3.915594914173648e-06	-0.6291535586762235	0.1375145162072483	-1.969066281953949e-07	1.623196409519912e-07	1.653967954913413e-06	1.822181593270521e-07	-2.144217694902483e-07	3.070107726405806e-07	-1.958897085909253e-07
0.58	-0.1329903952339375	-0.05126285324347512	0.7581619768290417	1.121712733203191	-0.328069582327382	-0.02873608739622286	-0.8561492642115711	1.109658136367953	1.109658136367856	-0.07487664525679488	-0.1745264934165626	0.199304291331587	0.0334573080770065	-0.1538898250772393	-0.09513658241643036	-0.4594226718540341	1.578223511295501	0.0004493634639898134	0.5108465415925316	-0.6638416980002148	1.725974367606864	1.725974367606895	0.1691254670877518	-3.583937351663452e-05	0.4212322918514319	0.1570818203843597	-0.3436010149521272	0.0362444841147911	-0.006532975982318466	-0.2690308084471372	0.05709281221162956	0.03641509250374099	0.3897501651386158	-28.08360698859783	-11.32952710183555	1.845021241037287	-6.145404026839424	-740.4334370728031	-61.86904927968199	-2.984160378681111	0.48954015573954	0.6723589358934132	0.2900810433271029	-2.707179751387504	0.2375408697760004	-0.8711740914220659	2.31254105591638	-2.697571671899542	-2.697571671899549	-0.2481831463543752	-0.009307943855680314	-0.6500039794824827	0.1394372196893278	-1.712129157825518e-07	2.265065883547073e-07	1.55749713366924e-06	1.77576217869665e-07	-1.884748543161523e-07	3.455418501798688e-07	-1.759778692775215e-07
